HIERARCHY
ROOT Hips
{
	OFFSET 0.000000 0.000000 0.000000
	CHANNELS 6 Xposition Yposition Zposition Zrotation Yrotation Xrotation 
	JOINT LHipJoint
	{
		OFFSET 0.000000 0.000000 0.000000
		CHANNELS 3 Zrotation Yrotation Xrotation
		JOINT LeftUpLeg
		{
			OFFSET 1.363060 -1.794630 0.839290
			CHANNELS 3 Zrotation Yrotation Xrotation
			JOINT LeftLeg
			{
				OFFSET 2.448110 -6.726130 0.000000
				CHANNELS 3 Zrotation Yrotation Xrotation
				JOINT LeftFoot
				{
					OFFSET 2.562200 -7.039590 0.000000
					CHANNELS 3 Zrotation Yrotation Xrotation
					JOINT LeftToeBase
					{
						OFFSET 0.157640 -0.433110 2.322550
						CHANNELS 3 Zrotation Yrotation Xrotation
						End Site
						{
							OFFSET 0.000000 0.000000 0.000000
						}
					}
				}
			}
		}
	}
	JOINT RHipJoint
	{
		OFFSET 0.000000 0.000000 0.000000
		CHANNELS 3 Zrotation Yrotation Xrotation
		JOINT RightUpLeg
		{
			OFFSET -1.305520 -1.794630 0.839290
			CHANNELS 3 Zrotation Yrotation Xrotation
			JOINT RightLeg
			{
				OFFSET -2.542530 -6.985550 0.000000
				CHANNELS 3 Zrotation Yrotation Xrotation
				JOINT RightFoot
				{
					OFFSET -2.568260 -7.056230 0.000000
					CHANNELS 3 Zrotation Yrotation Xrotation
					JOINT RightToeBase
					{
						OFFSET -0.164730 -0.452590 2.363150
						CHANNELS 3 Zrotation Yrotation Xrotation
						End Site
						{
							OFFSET 0.000000 0.000000 0.000000
						}
					}
				}
			}
		}
	}
	JOINT LowerBack
	{
		OFFSET 0.000000 0.000000 0.000000
		CHANNELS 3 Zrotation Yrotation Xrotation
		JOINT Spine
		{
			OFFSET 0.028270 2.035590 -0.193380
			CHANNELS 3 Zrotation Yrotation Xrotation
			JOINT Spine1
			{
				OFFSET 0.056720 2.048850 -0.042750
				CHANNELS 3 Zrotation Yrotation Xrotation
				JOINT Neck
				{
					OFFSET 0.000000 0.000000 0.000000
					CHANNELS 3 Zrotation Yrotation Xrotation
					JOINT Neck1
					{
						OFFSET -0.054170 1.746240 0.172020
						CHANNELS 3 Zrotation Yrotation Xrotation
						JOINT Head
						{
							OFFSET 0.104070 1.761360 -0.123970
							CHANNELS 3 Zrotation Yrotation Xrotation
							End Site
							{
								OFFSET 0.000000 0.000000 0.000000
							}
						}
					}
				}
				JOINT LeftShoulder
				{
					OFFSET 0.000000 0.000000 0.000000
					CHANNELS 3 Zrotation Yrotation Xrotation
					JOINT LeftArm
					{
						OFFSET 3.362410 1.200890 -0.311210
						CHANNELS 3 Zrotation Yrotation Xrotation
						JOINT LeftForeArm
						{
							OFFSET 4.983000 -0.000000 -0.000000
							CHANNELS 3 Zrotation Yrotation Xrotation
							JOINT LeftHand
							{
								OFFSET 3.483560 -0.000000 -0.000000
								CHANNELS 3 Zrotation Yrotation Xrotation
								JOINT LeftFingerBase
								{
									OFFSET 0.000000 0.000000 0.000000
									CHANNELS 3 Zrotation Yrotation Xrotation
									JOINT LeftHandIndex1
									{
										OFFSET 0.715260 -0.000000 -0.000000
										CHANNELS 3 Zrotation Yrotation Xrotation
										End Site
										{
											OFFSET 0.000000 0.000000 0.000000
										}
									}
								}
								JOINT LThumb
								{
									OFFSET 0.000000 0.000000 0.000000
									CHANNELS 3 Zrotation Yrotation Xrotation
									End Site
									{
										OFFSET 0.000000 0.000000 0.000000
									}
								}
							}
						}
					}
				}
				JOINT RightShoulder
				{
					OFFSET 0.000000 0.000000 0.000000
					CHANNELS 3 Zrotation Yrotation Xrotation
					JOINT RightArm
					{
						OFFSET -3.136600 1.374050 -0.404650
						CHANNELS 3 Zrotation Yrotation Xrotation
						JOINT RightForeArm
						{
							OFFSET -5.241900 -0.000000 -0.000000
							CHANNELS 3 Zrotation Yrotation Xrotation
							JOINT RightHand
							{
								OFFSET -3.444170 -0.000000 -0.000000
								CHANNELS 3 Zrotation Yrotation Xrotation
								JOINT RightFingerBase
								{
									OFFSET 0.000000 0.000000 0.000000
									CHANNELS 3 Zrotation Yrotation Xrotation
									JOINT RightHandIndex1
									{
										OFFSET -0.622530 -0.000000 -0.000000
										CHANNELS 3 Zrotation Yrotation Xrotation
										End Site
										{
											OFFSET 0.000000 0.000000 0.000000
										}
									}
								}
								JOINT RThumb
								{
									OFFSET 0.000000 0.000000 0.000000
									CHANNELS 3 Zrotation Yrotation Xrotation
									End Site
									{
										OFFSET 0.000000 0.000000 0.000000
									}
								}
							}
						}
					}
				}
			}
		}
	}
}
MOTION
Frames: 4
Frame Time: 0.008333
3.697447 16.255718 -3.277471 -163.138393 70.373096 -160.631647 -10.836781 2.331580 -0.468559 -18.050244 10.013387 -7.856461 -2.459529 0.559985 28.826694 3.545125 12.452453 -32.287058 173.722300 -0.000000 -0.561801 9.490000 0.430035 -0.632501 -0.678724 -13.020580 -30.073827 1.281729 -2.052688 36.733539 -3.164114 -14.691664 -11.551283 0.460001 -0.000000 -45.111300 4.754346 -1.874501 -0.529211 0.324787 -2.217869 -2.405532 -5.669664 -2.213884 3.035256 10.275524 -16.069647 -11.763886 -1.991447 -0.096082 -1.098468 0.000000 0.000000 0.000000 1.930172 20.402653 0.753982 -74.162365 4.071865 -3.381179 -2.702397 -35.111533 -0.009205 10.475225 -0.432077 -0.045568 -0.166740 0.066559 -0.000000 0.000000 0.000000 0.000000 0.000000 0.000000 0.000000 12.402301 -12.442307 0.504888 70.451436 -4.665808 -20.175264 3.740464 19.477239 0.003742 -4.597121 3.537597 -0.150010 0.157005 -0.086516 -0.000000 0.000000 0.000000 0.000000 0.000000 0.000000 0.000000 
3.915763 16.327580 -3.377777 -163.264700 69.580369 -160.789493 -10.959601 2.476206 -0.298921 -17.290253 9.845597 -5.796335 -2.417670 0.446746 26.629350 3.281623 11.704544 -30.500712 -5.538800 0.000000 -1.799900 9.317926 0.426076 -0.643525 0.442801 -13.333301 -30.258499 1.461345 -1.849448 34.506217 -3.137923 -14.382649 -11.387717 0.383500 0.000000 -46.008000 5.194579 -2.158949 -0.749180 0.415439 -2.543424 -2.438531 -5.724486 -2.532182 3.026583 10.444604 -16.578846 -11.777616 -2.056064 -0.101759 -1.095302 0.000000 0.000000 0.000000 2.512734 19.851768 0.618516 -72.684109 4.362634 -2.296211 -2.571586 -38.754749 -0.010080 10.411936 -0.863111 -0.086434 -0.173190 0.080754 -0.000000 0.000000 0.000000 0.000000 0.000000 0.000000 0.000000 13.002644 -13.132877 0.509004 70.994937 -5.722441 -20.163323 3.827713 18.954424 0.003714 -3.978099 3.033619 -0.111735 0.154108 -0.077483 -0.000000 0.000000 0.000000 0.000000 0.000000 0.000000 0.000000 
4.136563 16.404742 -3.478941 -163.367642 68.730527 -160.938449 -11.100637 2.638331 -0.111498 -16.468243 9.624273 -3.831790 -2.348343 0.366697 24.577507 3.012395 11.045068 -28.455189 -4.804400 0.000000 -4.687101 9.140831 0.393423 -0.655558 1.618443 -13.651942 -30.307125 1.662006 -1.630809 32.161231 -3.060406 -13.850844 -11.147419 0.290600 0.000000 -47.480800 5.627885 -2.459556 -0.992990 0.509358 -2.886041 -2.473715 -5.775063 -2.866894 3.028200 10.631955 -17.142164 -11.804372 -2.115719 -0.106938 -1.095121 0.000000 0.000000 0.000000 3.102752 19.345377 0.485053 -71.114731 4.676899 -1.317064 -2.425786 -42.287732 -0.011248 10.395040 -1.270328 -0.125301 -0.179038 0.096369 -0.000000 0.000000 0.000000 0.000000 0.000000 0.000000 0.000000 13.618345 -13.876352 0.498505 71.459319 -6.829706 -19.859612 3.908089 18.700792 0.003742 -3.350073 2.602706 -0.081155 0.151020 -0.068610 -0.000000 0.000000 0.000000 0.000000 0.000000 0.000000 0.000000 
4.359691 16.486528 -3.580450 -163.473656 67.827681 -161.097501 -11.253298 2.819571 0.090189 -15.606617 9.355638 -2.011247 -2.253959 0.325916 22.734772 2.743893 10.481646 -26.157134 -4.081500 0.000000 -8.215400 8.962949 0.336063 -0.659793 2.823814 -13.961229 -30.230492 1.880424 -1.396541 29.708713 -2.940115 -13.148477 -10.826540 0.184700 0.000000 -49.410700 6.039609 -2.774930 -1.265085 0.604262 -3.243564 -2.511970 -5.820194 -3.216118 3.041801 10.833194 -17.754430 -11.841598 -2.170121 -0.111634 -1.097238 0.000000 0.000000 0.000000 3.690748 18.887378 0.353499 -69.471558 4.994105 -0.479338 -2.268649 -45.675082 -0.012902 10.463012 -1.620402 -0.160273 -0.184409 0.113119 -0.000000 0.000000 0.000000 0.000000 0.000000 0.000000 0.000000 14.242454 -14.669718 0.471977 71.855330 -7.963104 -19.335130 3.980292 18.657392 0.003885 -2.741162 2.286837 -0.058767 0.147823 -0.060217 -0.000000 0.000000 0.000000 0.000000 0.000000 0.000000 0.000000 
